<mxfile host="app.diagrams.net" modified="2023-10-06T22:16:53.218Z" agent="Mozilla/5.0 (Windows NT 10.0; Win64; x64) AppleWebKit/537.36 (KHTML, like Gecko) Chrome/116.0.5845.2271 YaBrowser/23.9.0.2271 Yowser/2.5 Safari/537.36" etag="ZSmlDHf7b5m0nJZG-mrR" version="21.8.1" type="device">
  <diagram name="Страница — 1" id="0Fe31fzupErIYnQnvtf8">
    <mxGraphModel dx="1189" dy="710" grid="1" gridSize="10" guides="1" tooltips="1" connect="1" arrows="1" fold="1" page="1" pageScale="1" pageWidth="1169" pageHeight="827" math="0" shadow="0">
      <root>
        <mxCell id="0" />
        <mxCell id="1" parent="0" />
        <mxCell id="GLMFBdCi1oCmCL03dTun-25" value="" style="html=1;dropTarget=0;whiteSpace=wrap;fillColor=#d5e8d4;strokeColor=#82b366;" parent="1" vertex="1">
          <mxGeometry x="317.5" y="200" width="452.5" height="360" as="geometry" />
        </mxCell>
        <mxCell id="GLMFBdCi1oCmCL03dTun-1" value="&lt;div&gt;Пользователь &lt;br&gt;ХаброЛинкера&lt;br&gt;&lt;/div&gt;" style="shape=umlActor;verticalLabelPosition=bottom;verticalAlign=top;html=1;outlineConnect=0;" parent="1" vertex="1">
          <mxGeometry x="120" y="340" width="30" height="60" as="geometry" />
        </mxCell>
        <mxCell id="GLMFBdCi1oCmCL03dTun-13" value="&lt;div&gt;Отправка сообщений&amp;nbsp;&amp;nbsp;&lt;/div&gt;найденным&amp;nbsp;&lt;div&gt;зарегистрированным&lt;br&gt;единомышленникам&lt;/div&gt;" style="ellipse;whiteSpace=wrap;html=1;fillColor=#ffe6cc;strokeColor=#d79b00;" parent="1" vertex="1">
          <mxGeometry x="340" y="440" width="180" height="80" as="geometry" />
        </mxCell>
        <mxCell id="GLMFBdCi1oCmCL03dTun-18" value="" style="endArrow=none;html=1;rounded=0;entryX=0;entryY=0.5;entryDx=0;entryDy=0;" parent="1" source="GLMFBdCi1oCmCL03dTun-1" target="GLMFBdCi1oCmCL03dTun-13" edge="1">
          <mxGeometry width="50" height="50" relative="1" as="geometry">
            <mxPoint x="157" y="390" as="sourcePoint" />
            <mxPoint x="520" y="410" as="targetPoint" />
          </mxGeometry>
        </mxCell>
        <mxCell id="GLMFBdCi1oCmCL03dTun-23" value="Варианты использования" style="shape=umlFrame;whiteSpace=wrap;html=1;pointerEvents=0;width=210;height=20;" parent="1" vertex="1">
          <mxGeometry x="80" y="180" width="820" height="560" as="geometry" />
        </mxCell>
        <mxCell id="GLMFBdCi1oCmCL03dTun-29" value="Регистрация в системе как единомышленник" style="ellipse;whiteSpace=wrap;html=1;fillColor=#ffe6cc;strokeColor=#d79b00;" parent="1" vertex="1">
          <mxGeometry x="570" y="354" width="175" height="60" as="geometry" />
        </mxCell>
        <mxCell id="GLMFBdCi1oCmCL03dTun-30" value="" style="endArrow=none;html=1;rounded=0;exitX=1;exitY=0.5;exitDx=0;exitDy=0;" parent="1" source="GLMFBdCi1oCmCL03dTun-29" target="irt0PZdEbjW146X8YQon-10" edge="1">
          <mxGeometry width="50" height="50" relative="1" as="geometry">
            <mxPoint x="379" y="493" as="sourcePoint" />
            <mxPoint x="905" y="301" as="targetPoint" />
            <Array as="points">
              <mxPoint x="760" y="500" />
            </Array>
          </mxGeometry>
        </mxCell>
        <mxCell id="GLMFBdCi1oCmCL03dTun-32" value="" style="endArrow=none;html=1;rounded=0;entryX=1;entryY=0.5;entryDx=0;entryDy=0;" parent="1" source="irt0PZdEbjW146X8YQon-10" target="DlbZdIHzd7oVlVPWz-om-2" edge="1">
          <mxGeometry width="50" height="50" relative="1" as="geometry">
            <mxPoint x="903" y="313" as="sourcePoint" />
            <mxPoint x="779" y="708" as="targetPoint" />
            <Array as="points">
              <mxPoint x="740" y="510" />
            </Array>
          </mxGeometry>
        </mxCell>
        <mxCell id="GLMFBdCi1oCmCL03dTun-33" value="Регистрация на платформе" style="ellipse;whiteSpace=wrap;html=1;fillColor=#ffe6cc;strokeColor=#d79b00;" parent="1" vertex="1">
          <mxGeometry x="330" y="240" width="190.16" height="30" as="geometry" />
        </mxCell>
        <mxCell id="GLMFBdCi1oCmCL03dTun-34" value="" style="endArrow=none;html=1;rounded=0;entryX=0;entryY=0.5;entryDx=0;entryDy=0;" parent="1" source="GLMFBdCi1oCmCL03dTun-1" target="GLMFBdCi1oCmCL03dTun-33" edge="1">
          <mxGeometry width="50" height="50" relative="1" as="geometry">
            <mxPoint x="470" y="490" as="sourcePoint" />
            <mxPoint x="520" y="440" as="targetPoint" />
          </mxGeometry>
        </mxCell>
        <mxCell id="GLMFBdCi1oCmCL03dTun-48" value="&lt;u&gt;&lt;b&gt;ХаброЛинкер&lt;br&gt;&lt;/b&gt;&lt;/u&gt;" style="text;html=1;strokeColor=none;fillColor=none;align=center;verticalAlign=middle;whiteSpace=wrap;rounded=0;" parent="1" vertex="1">
          <mxGeometry x="548.75" y="210" width="107.5" height="30" as="geometry" />
        </mxCell>
        <mxCell id="GLMFBdCi1oCmCL03dTun-49" value="&lt;div&gt;&quot;Единомышленник&quot;&lt;/div&gt;" style="shape=umlActor;verticalLabelPosition=bottom;verticalAlign=top;html=1;outlineConnect=0;" parent="1" vertex="1">
          <mxGeometry x="820" y="260" width="30" height="60" as="geometry" />
        </mxCell>
        <mxCell id="DlbZdIHzd7oVlVPWz-om-2" value="Управление личным профилем" style="ellipse;whiteSpace=wrap;html=1;fillColor=#ffe6cc;strokeColor=#d79b00;" parent="1" vertex="1">
          <mxGeometry x="570" y="430" width="150" height="40" as="geometry" />
        </mxCell>
        <mxCell id="irt0PZdEbjW146X8YQon-3" value="Поиск единомышленников по фильтрам" style="ellipse;whiteSpace=wrap;html=1;fillColor=#ffe6cc;strokeColor=#d79b00;" vertex="1" parent="1">
          <mxGeometry x="330" y="280" width="210" height="40" as="geometry" />
        </mxCell>
        <mxCell id="irt0PZdEbjW146X8YQon-4" value="Управление фильтрами поиска" style="ellipse;whiteSpace=wrap;html=1;fillColor=#ffe6cc;strokeColor=#d79b00;" vertex="1" parent="1">
          <mxGeometry x="330" y="330" width="210" height="40" as="geometry" />
        </mxCell>
        <mxCell id="irt0PZdEbjW146X8YQon-5" value="Сохранение/Удаление &lt;br&gt;найденных единомышленников" style="ellipse;whiteSpace=wrap;html=1;fillColor=#ffe6cc;strokeColor=#d79b00;" vertex="1" parent="1">
          <mxGeometry x="330" y="380" width="200" height="50" as="geometry" />
        </mxCell>
        <mxCell id="irt0PZdEbjW146X8YQon-6" value="" style="endArrow=none;html=1;rounded=0;entryX=0;entryY=0.5;entryDx=0;entryDy=0;" edge="1" parent="1" source="GLMFBdCi1oCmCL03dTun-1" target="irt0PZdEbjW146X8YQon-3">
          <mxGeometry width="50" height="50" relative="1" as="geometry">
            <mxPoint x="160" y="360" as="sourcePoint" />
            <mxPoint x="340" y="265" as="targetPoint" />
          </mxGeometry>
        </mxCell>
        <mxCell id="irt0PZdEbjW146X8YQon-7" value="" style="endArrow=none;html=1;rounded=0;entryX=0;entryY=0.5;entryDx=0;entryDy=0;" edge="1" parent="1" source="GLMFBdCi1oCmCL03dTun-1" target="irt0PZdEbjW146X8YQon-4">
          <mxGeometry width="50" height="50" relative="1" as="geometry">
            <mxPoint x="160" y="370" as="sourcePoint" />
            <mxPoint x="340" y="310" as="targetPoint" />
          </mxGeometry>
        </mxCell>
        <mxCell id="irt0PZdEbjW146X8YQon-8" value="" style="endArrow=none;html=1;rounded=0;entryX=0;entryY=0.5;entryDx=0;entryDy=0;" edge="1" parent="1" source="GLMFBdCi1oCmCL03dTun-1" target="irt0PZdEbjW146X8YQon-5">
          <mxGeometry width="50" height="50" relative="1" as="geometry">
            <mxPoint x="158" y="382" as="sourcePoint" />
            <mxPoint x="340" y="360" as="targetPoint" />
          </mxGeometry>
        </mxCell>
        <mxCell id="irt0PZdEbjW146X8YQon-9" value="Получение сообщений от пользователей" style="ellipse;whiteSpace=wrap;html=1;fillColor=#ffe6cc;strokeColor=#d79b00;" vertex="1" parent="1">
          <mxGeometry x="560" y="490" width="170" height="60" as="geometry" />
        </mxCell>
        <mxCell id="irt0PZdEbjW146X8YQon-10" value="&lt;div&gt;&quot;Единомышленник&quot; &lt;br&gt;зарегистрированный в&amp;nbsp;&lt;br&gt;ХаброЛинкере&lt;/div&gt;" style="shape=umlActor;verticalLabelPosition=bottom;verticalAlign=top;html=1;outlineConnect=0;" vertex="1" parent="1">
          <mxGeometry x="690" y="620" width="30" height="60" as="geometry" />
        </mxCell>
        <mxCell id="irt0PZdEbjW146X8YQon-12" value="" style="endArrow=block;endSize=11;endFill=0;html=1;rounded=0;" edge="1" parent="1" source="irt0PZdEbjW146X8YQon-10" target="GLMFBdCi1oCmCL03dTun-49">
          <mxGeometry width="160" relative="1" as="geometry">
            <mxPoint x="469" y="723" as="sourcePoint" />
            <mxPoint x="629" y="723" as="targetPoint" />
            <Array as="points">
              <mxPoint x="835" y="650" />
            </Array>
          </mxGeometry>
        </mxCell>
        <mxCell id="irt0PZdEbjW146X8YQon-13" value="" style="endArrow=none;html=1;rounded=0;entryX=0.5;entryY=1;entryDx=0;entryDy=0;" edge="1" parent="1" source="irt0PZdEbjW146X8YQon-10" target="irt0PZdEbjW146X8YQon-9">
          <mxGeometry width="50" height="50" relative="1" as="geometry">
            <mxPoint x="902" y="473" as="sourcePoint" />
            <mxPoint x="779" y="343" as="targetPoint" />
          </mxGeometry>
        </mxCell>
        <mxCell id="irt0PZdEbjW146X8YQon-15" value="" style="endArrow=block;endSize=11;endFill=0;html=1;rounded=0;" edge="1" parent="1" source="irt0PZdEbjW146X8YQon-10" target="GLMFBdCi1oCmCL03dTun-1">
          <mxGeometry width="160" relative="1" as="geometry">
            <mxPoint x="589" y="660" as="sourcePoint" />
            <mxPoint x="934" y="330" as="targetPoint" />
            <Array as="points">
              <mxPoint x="140" y="650" />
            </Array>
          </mxGeometry>
        </mxCell>
      </root>
    </mxGraphModel>
  </diagram>
</mxfile>
